<?xml version="1.0" encoding="UTF-8" standalone="no"?><!DOCTYPE svg PUBLIC "-//W3C//DTD SVG 1.1//EN" "http://www.w3.org/Graphics/SVG/1.1/DTD/svg11.dtd"><svg width="100%" height="100%" viewBox="0 0 1437 1437" version="1.1" xmlns="http://www.w3.org/2000/svg" xmlns:xlink="http://www.w3.org/1999/xlink" xml:space="preserve" xmlns:serif="http://www.serif.com/" style="fill-rule:evenodd;clip-rule:evenodd;stroke-miterlimit:2;"><g id="traje"><path d="M718.484,304.281c-69.387,-80.547 -112.613,-6.853 -146.227,15.387c-23.76,15.72 -47.693,17.16 -68.787,-25.44c-12.133,104.613 141.96,143.867 215.013,58.933c73.053,84.933 227.147,45.68 215.013,-58.933c-21.093,42.6 -45.027,41.16 -68.8,25.44c-33.6,-22.24 -76.826,-95.933 -146.213,-15.387Z" style="fill:#221815;"/><path d="M718.484,1008.308l226.107,-337.28c5.56,-21.307 12.04,-180.68 12.04,-180.68c0,0 44.493,93.573 73.213,208.48l-303.88,470.613l-14.96,0l-303.88,-470.613c28.72,-114.907 73.213,-208.48 73.213,-208.48c0,0 6.48,159.373 12.04,180.68l226.107,337.28Z" style="fill:#221815;"/><path d="M662.498,563.068l111.96,0c0,0 65.32,-50.76 107.507,-62.067c0,0 43.547,63 17.6,164c0,0 -46.44,-9.853 -122.307,-44.027c0,0 -41.787,-2.746 -58.773,-1.733c-16.987,-1.013 -58.773,1.733 -58.773,1.733c-75.88,34.174 -122.307,44.027 -122.307,44.027c-25.947,-101 17.587,-164 17.587,-164c42.2,11.307 107.507,62.067 107.507,62.067Z" style="fill:#221815;"/><path d="M741.417,670.721c0,-12.667 -10.267,-22.933 -22.933,-22.933c-12.667,0 -22.933,10.267 -22.933,22.933c0,12.667 10.267,22.933 22.933,22.933c12.667,0 22.933,-10.267 22.933,-22.933Z" style="fill:#221815;"/><path d="M741.417,772.841c0,-12.667 -10.267,-22.933 -22.933,-22.933c-12.667,0 -22.933,10.267 -22.933,22.933c0,12.667 10.267,22.933 22.933,22.933c12.667,0 22.933,-10.267 22.933,-22.933Z" style="fill:#221815;"/><path d="M741.417,884.948c0,-12.667 -10.267,-22.933 -22.933,-22.933c-12.667,0 -22.933,10.267 -22.933,22.933c0,12.667 10.267,22.933 22.933,22.933c12.667,0 22.933,-10.267 22.933,-22.933Z" style="fill:#221815;"/></g><path d="M718.484,10.564c390.973,0 707.92,316.947 707.92,707.92c0,390.973 -316.947,707.92 -707.92,707.92c-390.973,0 -707.92,-316.947 -707.92,-707.92c0,-390.973 316.947,-707.92 707.92,-707.92Z" style="fill:none;stroke:#221815;stroke-width:9.45px;"/></svg>