<?xml version="1.0" encoding="UTF-8" standalone="no"?><!DOCTYPE svg PUBLIC "-//W3C//DTD SVG 1.1//EN" "http://www.w3.org/Graphics/SVG/1.1/DTD/svg11.dtd"><svg width="100%" height="100%" viewBox="0 0 1437 1437" version="1.1" xmlns="http://www.w3.org/2000/svg" xmlns:xlink="http://www.w3.org/1999/xlink" xml:space="preserve" xmlns:serif="http://www.serif.com/" style="fill-rule:evenodd;clip-rule:evenodd;stroke-miterlimit:2;"><path d="M718.484,10.564c390.973,0 707.92,316.947 707.92,707.92c0,390.973 -316.947,707.92 -707.92,707.92c-390.973,0 -707.92,-316.947 -707.92,-707.92c0,-390.973 316.947,-707.92 707.92,-707.92Z" style="fill:none;stroke:#221815;stroke-width:9.45px;"/><g id="vestido"><path d="M629.789,649.507c9.523,-26.352 9.177,-26.215 10.173,-28.414c2.042,-4.509 3.745,-3.904 110.867,-3.894c39.76,0.004 43.863,-2.706 47.892,8.542c17.427,48.651 43.698,111.937 60.465,159.914c46.734,133.728 52.477,184.539 58.97,219.774c6.258,33.959 8.183,106.257 4.17,118.049c-2.671,7.85 -87.541,31.102 -167.049,30.442c-101.695,-0.845 -102.287,-0.873 -111.172,-1.293c-30.024,-1.421 -128.254,-17.292 -129.686,-31.4c-13.346,-131.468 49.241,-305.869 115.371,-471.719Z"/><path d="M945.733,987.837c-27.941,-156.778 -85.305,-279.355 -116.272,-364.896c-2.592,-7.16 7.707,-8.092 11.474,-1.457c27.374,48.216 38.506,43.577 66.76,78.108c50.628,61.876 139.433,180.528 181.558,336.936c3.178,11.801 8.747,19.047 -3.168,23.596c-53.336,20.362 -103.78,23.945 -126.297,25.156c-8.948,0.481 -5.595,-4.092 -5.71,-13.055c-0.087,-6.783 -0.447,-34.752 -8.345,-84.387Z"/><path d="M500.21,943.411c-20.965,102.27 -14.895,106.741 -17.138,137.613c-0.38,5.235 -8.358,6.058 -59.14,-1.38c-15.597,-2.285 -79.476,-16.935 -80.322,-25.16c-0.42,-4.083 23.449,-99.526 79.255,-199.535c79.622,-142.69 150.728,-196.03 164.34,-217.868c4.937,-7.921 12.867,-25.436 19.846,-19.235c6.635,5.894 -71.551,165.646 -106.841,325.565Z"/><path d="M871.724,434.439c-10.003,30.546 -11.143,29.919 -26.665,58.066c-15.767,28.592 -11.248,38.052 -20.83,38.22c-99.469,1.741 -194.309,0.424 -211.204,0.189c-9.196,-0.128 -7.441,-15.639 -20.891,-38.431c-3.606,-6.11 -32.338,-54.798 -31.926,-82.731c0.172,-11.66 99.463,-66.108 141.041,4.853c0.037,0.063 6.829,17.938 20.658,15.058c22.493,-4.684 11.146,-54.964 88.85,-50.091c15.702,0.985 68.745,17.666 66.137,32.306c-2.315,12.992 -2.413,12.766 -5.171,22.562Z"/><path d="M827.001,569.773c1.057,10.394 2.658,17.548 -2.824,17.699c-1.327,0.037 -210.189,0.137 -211.16,0.02c-7.056,-0.845 -3.594,-26.722 2.163,-26.918c0.321,-0.011 206.365,-0.017 206.818,0.002c6.17,0.253 4.888,7.914 5.003,9.198Z"/><path d="M604.293,352.781c-20.834,5.762 -26.964,10.007 -27.139,3.661c-0.19,-6.92 -2.229,-81.221 0.683,-86.533c1.659,-3.025 33.822,-5.474 34.365,2.084c0.181,2.521 -0.045,63.341 -0.066,68.849c-0.031,8.218 0.151,9.653 -7.845,11.939Z"/><path d="M830.715,352.567c-3.223,-1.137 -3.763,-0.405 -4.771,-2.54c-1.723,-3.65 -0.832,-77.191 -0.492,-78.405c1.574,-5.614 32.017,-4.076 33.895,-1.68c2.168,2.767 0.883,79.587 0.767,86.507c-0.093,5.582 -3.339,3.111 -29.399,-3.881Z"/></g></svg>